# Blender v2.67 (sub 0) OBJ File: ''
# www.blender.org
mtllib unit_cube.mtl
o Cube
v -0.500000 -0.500000 0.500000
v -0.500000 -0.500000 -0.500000
v 0.500000 -0.500000 -0.500000
v 0.500000 -0.500000 0.500000
v -0.500000 0.500000 0.500000
v -0.500000 0.500000 -0.500000
v 0.500000 0.500000 -0.500000
v 0.500000 0.500000 0.500000
vt 0.663409 0.662409
vt 0.337591 0.663408
vt 0.662409 0.336592
vt 0.004258 0.330075
vt 0.003258 0.004258
vt 0.330075 0.329076
vt 0.996742 0.662409
vt 0.670924 0.663408
vt 0.669925 0.337591
vt 0.337591 0.330075
vt 0.336592 0.004258
vt 0.662409 0.003258
vt 0.330075 0.662409
vt 0.004258 0.663409
vt 0.003258 0.337591
vt 0.336592 0.670924
vt 0.662409 0.669925
vt 0.663408 0.995742
vt 0.336592 0.337591
vt 0.329076 0.003258
vt 0.995742 0.336592
vt 0.663409 0.329076
vt 0.329076 0.336592
vt 0.337591 0.996742
vn -1.000000 0.000000 0.000000
vn 0.000000 0.000000 -1.000000
vn 1.000000 -0.000000 0.000000
vn 0.000000 0.000000 1.000000
vn 0.000000 -1.000000 0.000000
vn 0.000000 1.000000 0.000000
g Cube_Cube_None
usemtl None
s off
f 5/1/1 6/2/1 1/3/1
f 6/4/2 7/5/2 2/6/2
f 7/7/3 8/8/3 4/9/3
f 8/10/4 5/11/4 1/12/4
f 1/13/5 2/14/5 3/15/5
f 8/16/6 7/17/6 6/18/6
f 6/2/1 2/19/1 1/3/1
f 7/5/2 3/20/2 2/6/2
f 3/21/3 7/7/3 4/9/3
f 4/22/4 8/10/4 1/12/4
f 4/23/5 1/13/5 3/15/5
f 5/24/6 8/16/6 6/18/6
